# AST/ASF file generated using VICON BodyLanguage
# -----------------------------------------------
:version 1.10
:name VICON
:units
  mass 1.0
  length 0.45
  angle deg
:documentation
   .ast/.asf automatically generated from VICON data using
   VICON BodyBuilder and BodyLanguage model FoxedUp or BRILLIANT.MOD
:root
   order TX TY TZ RX RY RZ
   axis XYZ
   position 0 0 0  
   orientation 0 0 0 
:bonedata
  begin
     id 1 
     name lhipjoint
     direction 0.63403 -0.759788 0.143974 
     length 2.51904 
     axis 0 0 0  XYZ
  end
  begin
     id 2 
     name lfemur
     direction 0.34202 -0.939693 0  
     length 7.42313  
     axis 0 0 20  XYZ
    dof rx ry rz
    limits (-160.0 20.0)
           (-70.0 70.0)
           (-60.0 70.0)
  end
  begin
     id 3 
     name ltibia
     direction 0.34202 -0.939693 0   
     length 8.10141   
     axis 0 0 20   XYZ
    dof rx
    limits (-10.0 170.0)
  end
  begin
     id 4 
     name lfoot
     direction 0.0927455 -0.254816 0.962532   
     length 2.14078   
     axis -90 7.62852e-016 20   XYZ
    dof rx rz
    limits (-45.0 90.0)
           (-70.0 20.0)
  end
  begin
     id 5 
     name ltoes
     direction 1.53556e-011 -4.21949e-011 1   
     length 1.07182   
     axis -90 7.62852e-016 20   XYZ
    dof rx
    limits (-90.0 20.0)
  end
  begin
     id 6 
     name rhipjoint
     direction -0.659892 -0.738223 0.139888   
     length 2.59263  
     axis 0 0 0  XYZ 
  end
  begin
     id 7 
     name rfemur
     direction -0.34202 -0.939693 0   
     length 7.58575   
     axis 0 0 -20   XYZ
    dof rx ry rz
    limits (-160.0 20.0)
           (-70.0 70.0)
           (-70.0 60.0)
  end
  begin
     id 8 
     name rtibia
     direction -0.34202 -0.939693 0   
     length 8.19358   
     axis 0 0 -20   XYZ
    dof rx
    limits (-10.0 170.0)
 end
 begin
     id 9 
     name rfoot
     direction -0.0856543 -0.235333 0.968133   
     length 2.13415  
     axis -90 -7.62852e-016 -20   XYZ
    dof rx rz
    limits (-45.0 90.0)
           (-20.0 70.0)
  end
  begin
     id 10 
     name rtoes
     direction -1.53551e-011 -4.21811e-011 1   
     length 1.07055   
     axis -90 -7.62852e-016 -20   XYZ
    dof rx
    limits (-90.0 20.0)
  end
  begin
     id 11 
     name lowerback
     direction 0.025219 0.998394 -0.0507326   
     length 1.91844   
     axis 0 0 0   XYZ
    dof rx ry rz
    limits (-20.0 45.0)
           (-30.0 30.0)
           (-30.0 30.0)
  end
  begin
     id 12 
     name upperback
     direction 0.0213103 0.99967 -0.0143101   
     length 1.92246   
     axis 0 0 0   XYZ
    dof rx ry rz
    limits (-20.0 45.0)
           (-30.0 30.0)
           (-30.0 30.0)
  end
  begin
     id 13 
     name thorax
     direction 0.00920974 0.99991 0.00971518   
     length 1.92239   
     axis 0 0 0   XYZ
    dof rx ry rz
    limits (-20.0 45.0)
           (-30.0 30.0)
           (-30.0 30.0)
  end
  begin
     id 14 
     name lowerneck
     direction 0.0598257 0.997249 0.0437612   
     length 3.13679   
     axis 0 0 0   XYZ
    dof rx ry rz
    limits (-20.0 45.0)
           (-30.0 30.0)
           (-30.0 30.0)
  end
  begin
     id 15 
     name upperneck
     direction -0.035342 0.999338 0.00863891   
     length 3.16283   
     axis 0 0 0   XYZ
    dof rx ry rz
    limits (-20.0 45.0)
           (-30.0 30.0)
           (-30.0 30.0)
  end
  begin
     id 16
     name head
     direction 0.37144 0.811566 0.450991  
     length 1.2838  
     axis 0 0 0   XYZ
    dof rx ry rz
    limits (-20.0 45.0)
           (-30.0 30.0)
           (-30.0 30.0)
  end
  begin
     id 17 
     name lclavicle
     direction 0.961094 0.274654 -0.0293862  
     length 3.63466  
     axis 0 0 0   XYZ
    dof ry rz
    limits (-20.0 10.0)
           (0.0 20.0)
  end
  begin
     id 18 
     name lhumerus
     direction 1 -4.48963e-011 1.10303e-027   
     length 5.12842   
     axis 180 -30 -90   XYZ
    dof rx ry rz
    limits (-60.0 90.0)
           (-90.0 90.0)
           (-90.0 90.0)
  end
  begin
     id 19
     name lradius
     direction 1 -4.48968e-011 4.13199e-027   
     length 3.47396   
     axis 180 -30 -90   XYZ
    dof rx
    limits (-10.0 170.0)
  end
  begin
     id 20
     name lwrist
     direction 1 -4.48948e-011 9.12708e-027   
     length 1.73698   
     axis -6.84618e-015 90 90   XYZ
    dof ry
    limits (-180.0 0.0)
 end
  begin
     id 21 
     name lhand
     direction 1 -4.49057e-011 1.82749e-026   
     length 0.728607   
     axis -1.16502e-014 90 90   XYZ
    dof rx rz
    limits (-90.0 90.0)
           (-45.0 45.0)
  end
  begin
     id 22 
     name lfingers
     direction 1 -4.48912e-011 3.64949e-026   
     length 0.587422   
     axis -2.33008e-014 90 90   XYZ
    dof rx
    limits (0.0 90.0)
  end
  begin
     id 23
     name lthumb
     direction 0.707107 -6.34995e-011 0.707107   
     length 0.843424   
     axis -90 45 5.69224e-014   XYZ
    dof rx rz
    limits (-45.0 45.0)
           (-45.0 45.0)
  end
  begin
     id 24 
     name rclavicle
     direction -0.90514 0.421881 -0.0523369   
     length 3.57139  
     axis 0 0 0   XYZ 
    dof ry rz
    limits (-10.0 20.0)
           (-20.0 0.0)
  end
  begin
     id 25 
     name rhumerus
     direction -1 -4.48954e-011 -1.76662e-027  
     length 5.48477   
     axis 180 30 90   XYZ
    dof rx ry rz
    limits (-90.0 60.0)
           (-90.0 90.0)
           (-90.0 90.0)
  end
  begin
     id 26 
     name rradius
     direction -1 -4.48982e-011 1.26841e-027   
     length 3.47856   
     axis 180 30 90   XYZ
    dof rx
    limits (-10.0 170.0)
  end
  begin
     id 27 
     name rwrist
     direction -1 -4.49037e-011 9.13554e-027   
     length 1.73928   
     axis -6.84618e-015 -90 -90   XYZ
    dof ry
    limits (-180.0 0.0)
  end
  begin
     id 28
     name rhand
     direction -1 -4.48871e-011 1.82397e-026   
     length 0.709974   
     axis -1.16502e-014 -90 -90   XYZ
    dof rx rz
    limits (-90.0 90.0)
           (-45.0 45.0)
  end
  begin
     id 29
     name rfingers
     direction -1 -4.48994e-011 3.65258e-026   
     length 0.572399   
     axis -2.33008e-014 -90 -90   XYZ
    dof rx
    limits (0.0 90.0)
  end
  begin
     id 30
     name rthumb
     direction -0.707107 -6.34861e-011 0.707107   
     length 0.821855   
     axis -90 -45 -5.69224e-014   XYZ
    dof rx rz
    limits (-45.0 45.0)
           (-45.0 45.0)
  end
:hierarchy
  begin
    root lhipjoint rhipjoint lowerback
    lhipjoint lfemur
    lfemur ltibia
    ltibia lfoot
    lfoot ltoes
    rhipjoint rfemur
    rfemur rtibia
    rtibia rfoot
    rfoot rtoes
    lowerback upperback
    upperback thorax
    thorax lowerneck lclavicle rclavicle
    lowerneck upperneck
    upperneck head
    lclavicle lhumerus
    lhumerus lradius
    lradius lwrist
    lwrist lhand lthumb
    lhand lfingers
    rclavicle rhumerus
    rhumerus rradius
    rradius rwrist
    rwrist rhand rthumb
    rhand rfingers
  end

#!OML:ASF F:\VICON\USERDATA\INSTALL\Justin1\Justin1.ASF
:FULLY-SPECIFIED
:DEGREES
1576
root 0.0662887 18.1642 -3.84598 1.5856 3.78105 -4.04949
lowerback 0.925052 -0.596772 2.52061
upperback -3.89879 -0.569212 3.60187
thorax -4.53519 -0.300496 2.34144
lowerneck -10.6481 -2.74565 -4.2278
upperneck 21.3335 -2.30234 -3.08729
head 8.41672 -1.73704 -0.56506
rclavicle 1.59028e-015 -5.56597e-015
rhumerus 38.6924 -5.42362 -43.0907
rradius 83.8213
rwrist -17.8974
rhand -21.1343 9.60321
rfingers 7.12502
rthumb 5.24472 -20.3119
lclavicle 1.59028e-015 -5.56597e-015
lhumerus 28.487 3.77923 49.3294
lradius 85.6669
lwrist -6.21716
lhand -27.4085 26.5678
lfingers 7.12502
lthumb -0.814628 56.546
rfemur -13.4387 7.10878 28.7474
rtibia 33.5248
rfoot -18.3223 -13.5001
rtoes 28.0523
lfemur -12.5798 -9.97306 -18.0492
ltibia 31.0202
lfoot -17.9618 8.23736
ltoes 7.26267
1577
root 0.0668382 18.168 -3.84567 1.59488 3.83508 -3.98222
lowerback 0.817326 -0.663728 2.44036
upperback -3.84172 -0.67041 3.57512
thorax -4.41101 -0.348344 2.3604
lowerneck -10.5165 -2.71491 -4.09381
upperneck 21.0731 -2.30023 -3.09594
head 8.30147 -1.72045 -0.58414
rclavicle 4.96962e-015 7.15625e-015
rhumerus 36.4315 -4.39694 -43.8821
rradius 85.3894
rwrist -16.7162
rhand -20.8832 10.6312
rfingers 7.12502
rthumb 5.48712 -19.2777
lclavicle 4.96962e-015 7.15625e-015
lhumerus 25.6334 2.78853 50.2387
lradius 87.1459
lwrist -7.64313
lhand -27.0408 25.8687
lfingers 7.12502
lthumb -0.459488 55.848
rfemur -13.4561 7.05885 28.6674
rtibia 33.5507
rfoot -18.3401 -13.5453
rtoes 27.9508
lfemur -12.5533 -10.0289 -18.1237
ltibia 30.9606
lfoot -17.9467 8.24246
ltoes 7.29705
1578
root 0.0669897 18.1687 -3.84664 1.57374 3.90358 -3.95013
lowerback 0.808719 -0.699319 2.38631
upperback -3.77662 -0.722863 3.58056
thorax -4.33605 -0.372335 2.39727
lowerneck -10.7387 -2.68316 -3.96789
upperneck 21.0626 -2.25985 -3.13422
head 8.33551 -1.69638 -0.616982
rclavicle 6.06293e-015 -3.18055e-015
rhumerus 34.0272 -3.40898 -44.5024
rradius 86.8481
rwrist -15.4574
rhand -20.8961 11.3175
rfingers 7.12502
rthumb 5.47464 -18.5918
lclavicle 6.06293e-015 -3.18055e-015
lhumerus 22.9104 1.63657 51.4557
lradius 88.2889
lwrist -8.87276
lhand -27.2918 25.2676
lfingers 7.12502
lthumb -0.70191 55.2462
rfemur -13.4295 6.99608 28.6356
rtibia 33.5601
rfoot -18.3484 -13.5911
rtoes 27.7916
lfemur -12.5046 -10.0311 -18.17
ltibia 30.9251
lfoot -17.9431 8.2647
ltoes 6.74828
1579
root 0.0652775 18.1667 -3.85232 1.60226 3.93924 -3.94448
lowerback 0.841275 -0.719419 2.32048
upperback -3.78815 -0.748864 3.60508
thorax -4.36476 -0.382521 2.46169
lowerneck -10.9649 -2.62207 -3.8515
upperneck 21.0944 -2.19282 -3.09545
head 8.38542 -1.65359 -0.620275
rclavicle -1.43125e-014 4.21423e-014
rhumerus 31.4691 -2.32705 -45.1731
rradius 88.2071
rwrist -14.2383
rhand -20.9778 11.6725
rfingers 7.12502
rthumb 5.39582 -18.2388
lclavicle -1.43125e-014 4.21423e-014
lhumerus 19.9587 0.405712 52.7769
lradius 89.2624
lwrist -9.74374
lhand -27.7202 24.8489
lfingers 7.12502
lthumb -1.11568 54.8257
rfemur -13.4747 6.96974 28.6259
rtibia 33.5478
rfoot -18.3735 -13.5312
rtoes 27.992
lfemur -12.5524 -9.96995 -18.1693
ltibia 30.923
lfoot -17.9262 8.24242
ltoes 6.29473
1580
root 0.0627817 18.1657 -3.85906 1.6054 3.95851 -3.97861
lowerback 0.921605 -0.758686 2.28987
upperback -3.70897 -0.800207 3.65702
thorax -4.32546 -0.406021 2.5351
lowerneck -11.279 -2.60106 -3.88241
upperneck 20.9862 -2.1723 -2.96238
head 8.40804 -1.63276 -0.57196
rclavicle 8.00108e-015 -7.95139e-015
rhumerus 28.9757 -1.29362 -45.9634
rradius 89.4718
rwrist -13.1674
rhand -20.7562 11.8108
rfingers 7.12502
rthumb 5.60978 -18.0949
lclavicle 8.00108e-015 -7.95139e-015
lhumerus 17.0066 -0.551869 54.2332
lradius 90.0689
lwrist -10.5165
lhand -27.5862 24.5766
lfingers 7.12502
lthumb -0.986258 54.5541
rfemur -13.476 7.03123 28.6708
rtibia 33.5193
rfoot -18.3845 -13.552
rtoes 28.146
lfemur -12.5997 -9.95547 -18.1106
ltibia 30.9435
lfoot -17.9457 8.18672
ltoes 6.42513
